<svg width="48" height="48" viewBox="0 0 48 48" fill="none" xmlns="http://www.w3.org/2000/svg">
<path d="M24 42.04C19.3 37.8827 15.76 34.006 13.38 30.41C10.9987 26.814 9.80798 23.5413 9.80798 20.592C9.80798 16.3613 11.1853 12.872 13.94 10.124C16.696 7.37467 20.0493 6 24 6H24.616C24.8213 6 25.0267 6.008 25.232 6.024V8.034C25.0267 8.01933 24.8267 8.00333 24.632 7.986C24.436 7.97 24.2253 7.962 24 7.962C20.5053 7.962 17.5993 9.152 15.282 11.532C12.966 13.9133 11.808 16.9333 11.808 20.592C11.808 23.0613 12.9 25.988 15.084 29.372C17.268 32.756 20.24 36.0833 24 39.354C27.7066 36.134 30.6467 32.864 32.82 29.544C34.992 26.224 36.116 23.33 36.192 20.862V20.77H38.192V20.862C38.116 23.7847 36.894 27.018 34.526 30.562C32.158 34.106 28.6493 37.932 24 42.04ZM24.008 23.464C24.8973 23.464 25.6573 23.1467 26.288 22.512C26.9173 21.8787 27.232 21.1167 27.232 20.226C27.232 19.3353 26.9146 18.5753 26.28 17.946C25.6453 17.3167 24.8833 17.002 23.994 17.002C23.1046 17.002 22.3447 17.3193 21.714 17.954C21.0833 18.5887 20.7687 19.3507 20.77 20.24C20.7713 21.1293 21.088 21.8893 21.72 22.52C22.352 23.1507 23.1146 23.4653 24.008 23.464ZM36 16H38V10H44V8H38V2H36V8H30V10H36V16Z" fill="#1D1E18"/>
</svg>
