<svg width="38" height="38" viewBox="0 0 38 38" fill="none" xmlns="http://www.w3.org/2000/svg">
<path fill-rule="evenodd" clip-rule="evenodd" d="M25.7292 8.42676C25.7292 9.07592 26.2675 9.61426 26.9167 9.61426C27.5658 9.61426 28.1042 9.07592 28.1042 8.42676V7.58126C29.1824 7.79976 29.9725 8.15759 30.5583 8.74342C31.4007 9.58576 31.7712 10.8461 31.9358 12.7809H6.06417C6.22883 10.8461 6.59933 9.58576 7.44167 8.74342C8.0275 8.15759 8.81758 7.79976 9.89583 7.58126V8.42676C9.89583 9.07592 10.4342 9.61426 11.0833 9.61426C11.7325 9.61426 12.2708 9.07592 12.2708 8.42676V7.31526C13.6578 7.24084 15.3488 7.24084 17.4167 7.24084H20.5833C22.6512 7.24084 24.3422 7.24084 25.7292 7.31526V8.42676ZM5.95808 15.1559H32.0419C32.0625 16.1993 32.0625 17.3789 32.0625 18.7184V22.6768C32.0625 28.3134 32.0625 31.1476 30.5583 32.6518C29.0542 34.1559 26.22 34.1559 20.5833 34.1559H17.4167C11.78 34.1559 8.94583 34.1559 7.44167 32.6518C5.9375 31.1476 5.9375 28.3134 5.9375 22.6768V18.7184C5.9375 17.3789 5.9375 16.1993 5.95808 15.1559ZM28.1042 5.16509V3.67676C28.1042 3.02759 27.5658 2.48926 26.9167 2.48926C26.2675 2.48926 25.7292 3.02759 25.7292 3.67676V4.93709C24.2883 4.86426 22.5958 4.86426 20.5833 4.86426H17.4167C15.4043 4.86426 13.7117 4.86426 12.2708 4.93709V3.67676C12.2708 3.02759 11.7325 2.48926 11.0833 2.48926C10.4342 2.48926 9.89583 3.02759 9.89583 3.67676V5.16509C8.12567 5.44692 6.83208 5.99634 5.76333 7.06509C3.5625 9.26592 3.5625 12.4168 3.5625 18.7184V22.6768C3.5625 28.9784 3.5625 32.1293 5.76333 34.3301C7.96417 36.5309 11.115 36.5309 17.4167 36.5309H20.5833C26.885 36.5309 30.0358 36.5309 32.2367 34.3301C34.4375 32.1293 34.4375 28.9784 34.4375 22.6768V18.7184C34.4375 12.4168 34.4375 9.26592 32.2367 7.06509C31.1679 5.99634 29.8743 5.44692 28.1042 5.16509ZM17.3058 29.4059H17.4167C17.8442 29.4059 18.2558 29.1684 18.4617 28.7884L18.4775 28.7615C18.7308 28.3182 21.8975 22.7844 25.7292 21.4259C26.3467 21.2043 26.6792 20.5234 26.4575 19.9059C26.3521 19.6081 26.1329 19.3642 25.848 19.2277C25.5631 19.0912 25.2357 19.0732 24.9375 19.1776C21.6125 20.3651 18.8733 23.7851 17.4483 25.9068C16.245 24.4818 14.7092 23.9593 14.6142 23.9276C14.4676 23.878 14.3127 23.858 14.1584 23.8687C14.004 23.8793 13.8533 23.9204 13.715 23.9896C13.5766 24.0588 13.4533 24.1547 13.3522 24.2718C13.2511 24.3888 13.1741 24.5248 13.1258 24.6718C12.9042 25.2893 13.2367 25.9543 13.8542 26.1759L13.8843 26.1902C14.1265 26.2915 15.732 26.9676 16.2751 28.5984C16.4334 29.0418 16.8293 29.3584 17.3042 29.4059" fill="#1D1E18"/>
</svg>
