<svg width="36" height="36" viewBox="0 0 36 36" fill="none" xmlns="http://www.w3.org/2000/svg">
<path d="M18 20.52L23.22 25.74C23.55 26.07 23.97 26.235 24.48 26.235C24.99 26.235 25.41 26.07 25.74 25.74C26.07 25.41 26.235 24.99 26.235 24.48C26.235 23.97 26.07 23.55 25.74 23.22L20.52 18L25.74 12.78C26.07 12.45 26.235 12.03 26.235 11.52C26.235 11.01 26.07 10.59 25.74 10.26C25.41 9.93 24.99 9.765 24.48 9.765C23.97 9.765 23.55 9.93 23.22 10.26L18 15.48L12.78 10.26C12.45 9.93 12.03 9.765 11.52 9.765C11.01 9.765 10.59 9.93 10.26 10.26C9.93 10.59 9.765 11.01 9.765 11.52C9.765 12.03 9.93 12.45 10.26 12.78L15.48 18L10.26 23.22C9.93 23.55 9.765 23.97 9.765 24.48C9.765 24.99 9.93 25.41 10.26 25.74C10.59 26.07 11.01 26.235 11.52 26.235C12.03 26.235 12.45 26.07 12.78 25.74L18 20.52ZM18 36C15.51 36 13.17 35.5272 10.98 34.5816C8.79 33.636 6.885 32.3538 5.265 30.735C3.645 29.1162 2.3628 27.2112 1.4184 25.02C0.474002 22.8288 0.00120228 20.4888 2.27848e-06 18C-0.00119772 15.5112 0.471602 13.1712 1.4184 10.98C2.3652 8.7888 3.6474 6.8838 5.265 5.265C6.8826 3.6462 8.7876 2.364 10.98 1.4184C13.1724 0.4728 15.5124 0 18 0C20.4876 0 22.8276 0.4728 25.02 1.4184C27.2124 2.364 29.1174 3.6462 30.735 5.265C32.3526 6.8838 33.6354 8.7888 34.5834 10.98C35.5314 13.1712 36.0036 15.5112 36 18C35.9964 20.4888 35.5236 22.8288 34.5816 25.02C33.6396 27.2112 32.3574 29.1162 30.735 30.735C29.1126 32.3538 27.2076 33.6366 25.02 34.5834C22.8324 35.5302 20.4924 36.0024 18 36ZM18 32.4C22.02 32.4 25.425 31.005 28.215 28.215C31.005 25.425 32.4 22.02 32.4 18C32.4 13.98 31.005 10.575 28.215 7.785C25.425 4.995 22.02 3.6 18 3.6C13.98 3.6 10.575 4.995 7.785 7.785C4.995 10.575 3.6 13.98 3.6 18C3.6 22.02 4.995 25.425 7.785 28.215C10.575 31.005 13.98 32.4 18 32.4Z" fill="#1D1E18"/>
</svg>
