<svg width="40" height="40" viewBox="0 0 40 40" fill="none" xmlns="http://www.w3.org/2000/svg">
<path d="M14.1666 35.0003V5.83366L14.3133 5.73533C17.4781 3.62564 21.1965 2.49987 25 2.49987C28.8035 2.49987 32.5219 3.62564 35.6866 5.73533L35.8333 5.83366V35.0003M9.99998 37.5003H40M14.1666 27.5003H12.5C10.7319 27.5003 9.03618 26.7979 7.78593 25.5477C6.53569 24.2975 5.83331 22.6018 5.83331 20.8337V10.0003M5.83331 10.0003C7.49998 10.0003 8.33331 9.16699 8.33331 9.16699V5.00033M5.83331 10.0003C4.16665 10.0003 3.33331 9.16699 3.33331 9.16699V5.00033M8.33331 5.00033H3.33331M8.33331 5.00033V1.66699M3.33331 5.00033V1.66699M26.6666 20.0003C25.8333 23.3337 23.3333 25.0003 23.3333 25.0003V25.8337H26.6666V26.667C25.8333 30.0003 23.3333 31.667 23.3333 31.667M30.8333 15.8337H19.1666V8.40533C22.9621 7.1996 27.0379 7.1996 30.8333 8.40533V15.8337Z" stroke="#1D1E18" stroke-width="2"/>
</svg>
