<svg width="38" height="38" viewBox="0 0 38 38" fill="none" xmlns="http://www.w3.org/2000/svg">
<path d="M34.3583 21.1372L32.775 22.7205L29.5292 19.4747L31.1125 17.8913C31.2753 17.7318 31.4942 17.6424 31.7221 17.6424C31.95 17.6424 32.1689 17.7318 32.3317 17.8913L34.3583 19.918C34.6908 20.2505 34.6908 20.8047 34.3583 21.1372ZM19 29.988L28.595 20.393L31.8408 23.6388L22.2617 33.2497H19V29.988ZM19 22.1663C12.0017 22.1663 6.33334 25.0005 6.33334 28.4997V31.6663H15.8333V28.6738L22.1667 22.3405C21.1217 22.2138 20.0608 22.1663 19 22.1663ZM19 6.33301C17.3203 6.33301 15.7094 7.00027 14.5217 8.188C13.3339 9.37573 12.6667 10.9866 12.6667 12.6663C12.6667 14.346 13.3339 15.957 14.5217 17.1447C15.7094 18.3324 17.3203 18.9997 19 18.9997C20.6797 18.9997 22.2906 18.3324 23.4784 17.1447C24.6661 15.957 25.3333 14.346 25.3333 12.6663C25.3333 10.9866 24.6661 9.37573 23.4784 8.188C22.2906 7.00027 20.6797 6.33301 19 6.33301Z" fill="#1D1E18"/>
</svg>
