<svg width="34" height="34" viewBox="0 0 34 34" fill="none" xmlns="http://www.w3.org/2000/svg">
<path d="M8.5 21.2503V24.0837H4.25V11.3337L7.72083 1.41699H26.2792L29.75 11.3337V24.0837H25.5V21.2503H8.5ZM8.21667 8.50033H25.7833L24.2958 4.25033H9.70417L8.21667 8.50033ZM10.625 17.0003C11.2153 17.0003 11.7172 16.794 12.1309 16.3812C12.5446 15.9685 12.7509 15.4665 12.75 14.8753C12.7491 14.2841 12.5427 13.7826 12.1309 13.3708C11.7191 12.959 11.2172 12.7522 10.625 12.7503C10.0328 12.7484 9.53133 12.9553 9.1205 13.3708C8.70967 13.7864 8.50283 14.2879 8.5 14.8753C8.49717 15.4628 8.704 15.9647 9.1205 16.3812C9.537 16.7977 10.0385 17.0041 10.625 17.0003ZM23.375 17.0003C23.9653 17.0003 24.4672 16.794 24.8809 16.3812C25.2946 15.9685 25.5009 15.4665 25.5 14.8753C25.4991 14.2841 25.2927 13.7826 24.8809 13.3708C24.4691 12.959 23.9672 12.7522 23.375 12.7503C22.7828 12.7484 22.2813 12.9553 21.8705 13.3708C21.4597 13.7864 21.2528 14.2879 21.25 14.8753C21.2472 15.4628 21.454 15.9647 21.8705 16.3812C22.287 16.7977 22.7885 17.0041 23.375 17.0003ZM18.4167 32.5837L9.91667 28.3337H15.5833V25.5003L24.0833 29.7503H18.4167V32.5837ZM7.08333 18.417H26.9167V11.3337H7.08333V18.417Z" fill="#1D1E18"/>
</svg>
