<svg width="34" height="34" viewBox="0 0 34 34" fill="none" xmlns="http://www.w3.org/2000/svg">
<path d="M23.8531 6.375C24.6267 6.37435 25.3926 6.52814 26.106 6.82735C26.8194 7.12657 27.4659 7.56519 28.0075 8.1175C29.1236 9.25053 29.7492 10.7771 29.7492 12.3675C29.7492 13.9579 29.1236 15.4845 28.0075 16.6175L17 27.7631L5.99251 16.6175C4.87644 15.4845 4.25084 13.9579 4.25084 12.3675C4.25084 10.7771 4.87644 9.25053 5.99251 8.1175C6.53448 7.56559 7.18099 7.1272 7.89429 6.82794C8.60758 6.52868 9.37335 6.37455 10.1469 6.37455C10.9204 6.37455 11.6862 6.52868 12.3995 6.82794C13.1128 7.1272 13.7593 7.56559 14.3013 8.1175L17 10.88L19.6881 8.13875C20.2281 7.57986 20.8753 7.13561 21.5909 6.83256C22.3066 6.52951 23.076 6.37389 23.8531 6.375ZM23.8531 4.25C22.7966 4.24911 21.7505 4.45916 20.7763 4.86785C19.802 5.27654 18.9191 5.87563 18.1794 6.63L17 7.82L15.8206 6.63C15.08 5.87699 14.1969 5.27894 13.2228 4.87071C12.2487 4.46247 11.2031 4.25223 10.1469 4.25223C9.09069 4.25223 8.04506 4.46247 7.07096 4.87071C6.09685 5.27894 5.21375 5.87699 4.47313 6.63C2.96638 8.16386 2.12213 10.228 2.12213 12.3781C2.12213 14.5282 2.96638 16.5924 4.47313 18.1263L17 30.8125L29.5269 18.1263C31.0336 16.5924 31.8779 14.5282 31.8779 12.3781C31.8779 10.228 31.0336 8.16386 29.5269 6.63C28.7861 5.87707 27.903 5.27891 26.929 4.87033C25.9549 4.46175 24.9094 4.25088 23.8531 4.25Z" fill="#1D1E18"/>
</svg>
