<svg width="34" height="34" viewBox="0 0 34 34" fill="none" xmlns="http://www.w3.org/2000/svg">
<path d="M14.875 8.49945H17V16.9994H14.875V8.49945ZM8.5 12.7494H0V4.24945H2.125V8.79828C2.86654 7.43695 3.76855 6.21397 4.83105 5.12933C5.89355 4.0447 7.06673 3.12608 8.35059 2.37347C9.63444 1.62087 11.0124 1.03428 12.4844 0.613707C13.9564 0.193134 15.4616 -0.0116186 17 -0.000550881C18.5605 -0.000550881 20.0658 0.198668 21.5156 0.597105C22.9655 0.995543 24.3213 1.56553 25.583 2.30707C26.8447 3.0486 27.9902 3.93402 29.0195 4.96332C30.0488 5.99261 30.9342 7.14365 31.6758 8.41644C32.4173 9.68923 32.9873 11.045 33.3857 12.4838C33.7842 13.9226 33.9889 15.4278 34 16.9994H31.875C31.875 15.6381 31.6979 14.3266 31.3438 13.0649C30.9896 11.8032 30.4915 10.6189 29.8496 9.51214C29.2077 8.40537 28.4274 7.39821 27.5088 6.49066C26.5902 5.58311 25.5885 4.80837 24.5039 4.16644C23.4193 3.52451 22.235 3.02093 20.9512 2.6557C19.6673 2.29046 18.3503 2.11338 17 2.12445C15.5723 2.12445 14.1833 2.32367 12.833 2.72211C11.4827 3.12054 10.2266 3.69053 9.06445 4.43207C7.90234 5.1736 6.84538 6.06455 5.89355 7.10492C4.94173 8.14528 4.16699 9.31846 3.56934 10.6244H8.5V12.7494ZM17 19.1244H34V21.2494H17V19.1244ZM17 25.4994H34V27.6244H17V25.4994ZM17 31.8744H34V33.9995H17V31.8744ZM2.67285 20.9672C3.07129 22.395 3.65234 23.7175 4.41602 24.935C5.17969 26.1524 6.09831 27.226 7.17188 28.1557C8.24544 29.0854 9.42969 29.8601 10.7246 30.4799C12.0195 31.0997 13.403 31.5092 14.875 31.7084V33.8666C13.1706 33.6342 11.5547 33.1749 10.0273 32.4887C8.5 31.8025 7.11654 30.9282 5.87695 29.8657C4.63737 28.8032 3.56934 27.5636 2.67285 26.1469C1.77637 24.7302 1.0957 23.1918 0.630859 21.5317L2.67285 20.9672Z" fill="#1D1E18"/>
</svg>
