<svg width="31" height="31" viewBox="0 0 31 31" fill="none" xmlns="http://www.w3.org/2000/svg">
<path d="M21.82 21.7002L20.6252 23.9468L26.4749 22.9904C25.2945 22.3983 23.6964 21.9752 21.82 21.7002ZM6.75088 22.19C4.04148 22.9045 2.32501 24.0754 2.32501 25.8145C2.32613 26.1889 2.40797 26.5587 2.56495 26.8986L11.9533 25.3641L6.75088 22.19ZM28.4549 24.8002L15.3884 26.9299L18.8344 30.8502C24.4931 30.3433 28.675 28.5357 28.675 25.8145C28.675 25.4518 28.5969 25.1145 28.4549 24.8002ZM13.1806 27.2976L4.35179 28.7406C6.68547 30.1861 10.8044 31.0002 15.5 31.0002C15.7846 31.0002 16.0627 30.9921 16.3429 30.9862L13.1806 27.2976Z" fill="#1D1E18"/>
<path d="M15.5006 0C10.4476 0 6.3017 4.13323 6.3017 9.17476C6.3017 11.1129 6.91767 12.9183 7.95772 14.4029L13.9203 24.7104L13.9457 24.7436C14.181 25.0508 14.4107 25.2932 14.6804 25.4715C14.9501 25.65 15.2849 25.7567 15.6135 25.7238C16.2701 25.6581 16.6721 25.1943 17.0537 24.6772L17.0742 24.6506L23.6567 13.4469L23.6605 13.4397C23.8148 13.1607 23.9289 12.8768 24.0256 12.6003C24.4692 11.5127 24.6977 10.3493 24.6983 9.17476C24.6983 4.13323 20.5536 0 15.5006 0ZM15.5006 5.28395C17.6926 5.28395 19.4035 6.99174 19.4035 9.17445C19.4035 11.3578 17.6926 13.0649 15.5006 13.0649C13.3083 13.0649 11.5965 11.3575 11.5965 9.17445C11.5965 6.99205 13.3086 5.28395 15.5006 5.28395Z" fill="#1D1E18"/>
</svg>
