<svg width="34" height="34" viewBox="0 0 34 34" fill="none" xmlns="http://www.w3.org/2000/svg">
<path d="M17.0992 26.3174L20.5091 22.9146L17.0977 19.5117L16.2095 20.4L18.1687 22.3592C17.0722 22.3649 16.0976 22.236 15.2447 21.9725C14.3919 21.7081 13.7086 21.3189 13.1948 20.8052C12.6678 20.2791 12.2712 19.6817 12.0048 19.0131C11.7385 18.3444 11.6053 17.6762 11.6053 17.0085C11.6053 16.6071 11.6497 16.2057 11.7385 15.8043C11.8273 15.4029 11.9567 15.0223 12.1267 14.6625L11.1676 13.8125C10.8937 14.3121 10.6892 14.8297 10.5542 15.3652C10.4191 15.9007 10.3521 16.4456 10.353 17C10.353 17.8415 10.5164 18.6721 10.8432 19.4919C11.1699 20.3117 11.653 21.046 12.2924 21.6948C12.9318 22.3437 13.7719 22.8253 14.8127 23.1398C15.8534 23.4543 16.9221 23.6144 18.0186 23.6201L16.2095 25.4292L17.0992 26.3174ZM22.8607 20.1875C23.1346 19.6879 23.3386 19.1703 23.4727 18.6348C23.6069 18.0993 23.6744 17.5544 23.6753 17C23.6753 16.1613 23.5129 15.3279 23.188 14.4996C22.8631 13.6713 22.3767 12.9375 21.7288 12.2981C21.0989 11.6492 20.2607 11.169 19.2142 10.8573C18.1669 10.5447 17.0982 10.3884 16.0083 10.3884L17.8174 8.57083L16.9292 7.68258L13.5178 11.0854L16.9292 14.4882L17.8174 13.6L15.8511 11.6337C16.9419 11.6337 17.918 11.7664 18.7793 12.0317C19.6407 12.2971 20.3277 12.6881 20.8406 13.2048C21.3534 13.7214 21.7454 14.314 22.0164 14.9827C22.2875 15.6513 22.4225 16.3209 22.4216 16.9915C22.4216 17.3929 22.3777 17.7943 22.2898 18.1957C22.202 18.5971 22.0726 18.9777 21.9017 19.3375L22.8607 20.1875ZM17.0042 29.75C15.2419 29.75 13.5844 29.4157 12.0317 28.747C10.48 28.0774 9.12994 27.1688 7.9815 26.0213C6.83306 24.8738 5.92403 23.5252 5.25442 21.9753C4.58481 20.4255 4.25 18.7685 4.25 17.0042C4.25 15.24 4.58481 13.5825 5.25442 12.0317C5.92308 10.48 6.83022 9.12994 7.97583 7.9815C9.12144 6.83306 10.4706 5.92403 12.0233 5.25442C13.5759 4.58481 15.2334 4.25 16.9957 4.25C18.7581 4.25 20.4156 4.58481 21.9683 5.25442C23.52 5.92308 24.8701 6.83069 26.0185 7.97725C27.1669 9.12381 28.076 10.4729 28.7456 12.0247C29.4152 13.5764 29.75 15.2334 29.75 16.9957C29.75 18.7581 29.4157 20.4156 28.747 21.9683C28.0783 23.5209 27.1698 24.871 26.0213 26.0185C24.8729 27.166 23.5242 28.075 21.9753 28.7456C20.4264 29.4161 18.7694 29.7509 17.0042 29.75ZM17 28.3333C20.1639 28.3333 22.8437 27.2354 25.0396 25.0396C27.2354 22.8437 28.3333 20.1639 28.3333 17C28.3333 13.8361 27.2354 11.1562 25.0396 8.96042C22.8437 6.76458 20.1639 5.66667 17 5.66667C13.8361 5.66667 11.1562 6.76458 8.96042 8.96042C6.76458 11.1562 5.66667 13.8361 5.66667 17C5.66667 20.1639 6.76458 22.8437 8.96042 25.0396C11.1562 27.2354 13.8361 28.3333 17 28.3333Z" fill="#1D1E18"/>
</svg>
