<svg width="34" height="34" viewBox="0 0 34 34" fill="none" xmlns="http://www.w3.org/2000/svg">
<path d="M4.25 26.9162H29.75C30.0082 26.9154 30.2612 26.8442 30.482 26.7103C30.7027 26.5763 30.8827 26.3847 31.0026 26.1561C31.1225 25.9275 31.1778 25.6704 31.1626 25.4127C31.1473 25.155 31.062 24.9063 30.9159 24.6935L18.1659 6.27679C17.6375 5.51321 16.3653 5.51321 15.8355 6.27679L3.0855 24.6935C2.93792 24.9059 2.85137 25.1547 2.83527 25.4128C2.81916 25.671 2.87411 25.9286 2.99414 26.1577C3.11418 26.3869 3.29471 26.5787 3.51611 26.7124C3.73752 26.8461 3.99134 26.9166 4.25 26.9162Z" fill="#1D1E18"/>
</svg>
